<svg width="20" height="21" viewBox="0 0 20 21" fill="none" xmlns="http://www.w3.org/2000/svg">
<path d="M17.98 5.54C17.38 5.8 16.76 5.98 16.1 6.06C16.78 5.66 17.3 5.02 17.54 4.24C16.9 4.62 16.2 4.88 15.46 5.04C14.86 4.4 14 4 13.06 4C11.24 4 9.78001 5.48 9.78001 7.28C9.78001 7.54 9.80001 7.78 9.86001 8.02C7.14001 7.9 4.74001 6.58 3.12001 4.6C1.96001 6.68 3.26001 8.4 4.12001 8.98C3.60001 8.98 3.08001 8.82 2.64001 8.58C2.64001 10.2 3.78001 11.54 5.26001 11.84C4.94001 11.94 4.22001 12 3.78001 11.9C4.20001 13.2 5.42001 14.16 6.84001 14.18C5.72001 15.06 4.08001 15.76 1.98001 15.54C3.44001 16.48 5.16001 17.02 7.02001 17.02C13.06 17.02 16.34 12.02 16.34 7.7C16.34 7.56 16.34 7.42 16.32 7.28C17 6.78 17.56 6.2 17.98 5.54Z" fill="#333333"/>
</svg>
